<svg id="Layer_1" data-name="Layer 1" xmlns="http://www.w3.org/2000/svg" viewBox="0 0 25.35 10.77"><path d="M11.78,4.11c0,.09,0,.2.06.29.1-.07.07-.16.07-.23V2.24a1,1,0,0,0-1-1l-1.79,0A.74.74,0,0,1,8.39.8C8.34.7,8.28.61,8.23.52A.93.93,0,0,0,7.34,0C6.52,0,5.71,0,4.89,0a1.12,1.12,0,0,0-1.2.68.78.78,0,0,1-.79.46c-.65,0-1.31,0-2,0A.84.84,0,0,0,0,2.07V4.13c0,.07,0,.16.07.23a.42.42,0,0,0,0-.29v-2A.74.74,0,0,1,1,1.25H3A.84.84,0,0,0,3.76.83C3.83.72,3.89.61,4,.5a.66.66,0,0,1,.6-.35H7.46a.73.73,0,0,1,.61.35l.19.33a.91.91,0,0,0,.87.5c.58,0,1.16,0,1.73,0s.92.3.92,1S11.78,3.5,11.78,4.11Z"/><path d="M18.79,7.33a2.66,2.66,0,0,0-1.33.85.83.83,0,0,0,.2,1.42l.27.13a1,1,0,0,1,.31.26.22.22,0,0,1-.07.36.83.83,0,0,1-1-.1l-.13-.06v.17a.79.79,0,0,0,.75.41l.29,0c.19-.06.41-.11.47-.35a.62.62,0,0,0-.25-.6l-.22-.16c-.18-.13-.36-.24-.53-.37a.34.34,0,0,1-.11-.46A2.28,2.28,0,0,1,19,7.59l.2,0,0,.23-.26.39V8.4l.1,0a.8.8,0,0,0,.47-.78A.48.48,0,0,0,18.79,7.33Z"/><path d="M8.31,4a2.38,2.38,0,1,0-2.44,2.3A2.39,2.39,0,0,0,8.31,4ZM6,6.15A2.22,2.22,0,0,1,3.7,3.92,2.24,2.24,0,1,1,6,6.15Z"/><path d="M2.72,7.75c0-.15-.12-.21-.26-.2A5.46,5.46,0,0,0,.8,7.73c-.09,0-.2,0-.18.16S.75,8,.83,8,1,8,1,8.1s-.16.5-.27.74a9.24,9.24,0,0,0-.56,1.52c0,.1,0,.21.1.24s.13-.1.15-.17a8.19,8.19,0,0,1,.37-1,.3.3,0,0,1,.34-.22,5.92,5.92,0,0,0,.84-.05c.08,0,.2,0,.18-.15s-.13-.11-.22-.1l-.78.05C1,8.92,1,8.88,1,8.75c.21-.79.39-.94,1.21-1a1.1,1.1,0,0,0,.27,0C2.56,7.82,2.71,7.88,2.72,7.75Z"/><path d="M21.14,9.54A.4.4,0,0,0,21,9.1a.39.39,0,0,0-.43.06,5.88,5.88,0,0,0-.73.6c.19-.65.43-1.21.63-1.78a.9.9,0,0,0,.08-.28l-.11-.2c-.12,0-.12.08-.15.15L19.81,9a8.92,8.92,0,0,0-.31,1c0,.09,0,.18.07.23s.17,0,.24-.07l.13-.16a2.83,2.83,0,0,1,.73-.61c.15-.08.23-.05.21.13s0,.27,0,.4a.27.27,0,0,0,.44.24s.13-.1,0-.13C21,9.94,21.11,9.73,21.14,9.54Z"/><path d="M8.24,9.1c-.15-.06-.19.1-.24.2a1.79,1.79,0,0,1-.5.63L7.3,10l0-.2a2.43,2.43,0,0,1,.17-.6c0-.11,0-.22-.09-.27s-.16.07-.19.16a2.32,2.32,0,0,1-.4.7c-.06.07-.12.18-.22.14s0-.16,0-.25.07-.44.1-.66l-.1-.17-.13.07a2,2,0,0,0-.11,1.24c.06.18.18.21.34.11A2.7,2.7,0,0,0,7,9.88c.1.4.32.51.6.33a1.77,1.77,0,0,0,.67-.79C8.31,9.31,8.38,9.17,8.24,9.1Z"/><path d="M5.24,9.38C5.38,9,5.1,9,4.94,8.81s-.34-.05-.48.08a2.55,2.55,0,0,0-.68,1c-.07.15-.13.32,0,.45s.33.05.48,0a3.72,3.72,0,0,0,.64-.55c.08.13.14.24.22.35a.44.44,0,0,0,.31.2l.16-.07-.08-.14C5.21,9.9,5.11,9.71,5.24,9.38ZM4.92,9.3a2.55,2.55,0,0,1-.95.85A2.44,2.44,0,0,1,4.64,9.1a.16.16,0,0,1,.24,0C5,9.13,5,9.2,4.92,9.3Z"/><path d="M25,8.86h.21l.13-.11-.12-.16H25l-.16,0,.07-.2c0-.13.27-.26.06-.38s-.26.14-.33.26-.17.45-.49.4l-.11.11.07.1c.19,0,.14.14.09.26A2.24,2.24,0,0,0,24,10c0,.24.05.45.31.54a.94.94,0,0,0,.83-.29V10l-.14,0a1.23,1.23,0,0,1-.49.16c-.19,0-.28-.07-.23-.26s.1-.46.16-.68S24.67,8.82,25,8.86Z"/><path d="M14.55,8.6a1.89,1.89,0,0,0-.67.45.56.56,0,0,0,.06.91l.31.24c-.22.14-.46,0-.67.09a.59.59,0,0,0,.78.22c.19-.08.22-.19.12-.36a1.4,1.4,0,0,0-.43-.41c-.1-.07-.16-.16-.1-.27a1.13,1.13,0,0,1,.78-.63.33.33,0,0,1-.09.24l0,.17.2,0A.46.46,0,0,0,15,8.77.34.34,0,0,0,14.55,8.6Z"/><path d="M22.76,8.82a1.48,1.48,0,0,0-.8,1.26.38.38,0,0,0,.5.35,1.43,1.43,0,0,0,.88-1.17A.41.41,0,0,0,22.76,8.82Zm-.3,1.36c-.17.07-.28,0-.23-.19a1.63,1.63,0,0,1,.53-.85L23,9.09l.07.18A1.21,1.21,0,0,1,22.46,10.18Z"/><path d="M12.68,8.59A1.93,1.93,0,0,0,12,9a.57.57,0,0,0,.06.93c.09.08.21.11.27.24a.83.83,0,0,1-.49.07l-.14,0,.08.13a.73.73,0,0,0,.7.05c.18-.06.21-.19.11-.34a1,1,0,0,0-.41-.39.26.26,0,0,1-.06-.41,1.14,1.14,0,0,1,.72-.52.36.36,0,0,1-.1.25v.17l.17,0a.46.46,0,0,0,.23-.5A.34.34,0,0,0,12.68,8.59Z"/><path d="M10.34,8.9a1.15,1.15,0,0,0-.46.87c0,.36.12.58.35.66a.57.57,0,0,0,.64-.23l0-.17-.16,0-.21.13a.27.27,0,0,1-.34-.07.42.42,0,0,1,0-.47c.06-.14.17,0,.26,0h.19a.69.69,0,0,0,.52-.47A.3.3,0,0,0,11,8.81.53.53,0,0,0,10.34,8.9Zm.15.5c-.05,0-.15,0-.15-.09s.29-.33.4-.32.16,0,.15.15S10.67,9.41,10.49,9.4Z"/><path d="M3.63,7.5c-.1,0-.12.07-.15.15-.13.37-.28.72-.4,1.09a7.07,7.07,0,0,0-.45,1.48v.13c0,.08,0,.18.15.17s.08-.11.1-.19,0-.26.07-.39A11.4,11.4,0,0,1,3.67,8a.7.7,0,0,0,.1-.34C3.77,7.6,3.74,7.51,3.63,7.5Z"/><path d="M9.56,7.64,8.89,9.47a3,3,0,0,0-.18.74v.13c0,.09,0,.18.14.18s.09-.11.11-.18,0-.27.08-.4A10.44,10.44,0,0,1,9.76,8a.63.63,0,0,0,.09-.33L9.72,7.5C9.61,7.48,9.59,7.56,9.56,7.64Z"/><path d="M1.64,2.11a.36.36,0,0,0-.35-.36.36.36,0,0,0,0,.72A.36.36,0,0,0,1.64,2.11Zm-.59,0a.22.22,0,0,1,.23-.24.23.23,0,0,1,.24.22.22.22,0,0,1-.24.24A.22.22,0,0,1,1.05,2.12Z"/><path d="M6,2.18A1.75,1.75,0,1,0,7.68,3.94,1.75,1.75,0,0,0,6,2.18ZM6,5.55A1.62,1.62,0,1,1,7.56,3.92,1.62,1.62,0,0,1,6,5.55Z"/></svg>